<?xml version="1.0" encoding="utf-8"?>
<!-- Generator: Adobe Illustrator 16.0.0, SVG Export Plug-In . SVG Version: 6.00 Build 0)  -->
<!DOCTYPE svg PUBLIC "-//W3C//DTD SVG 1.1//EN" "http://www.w3.org/Graphics/SVG/1.1/DTD/svg11.dtd">
<svg version="1.1" id="Camada_1" xmlns="http://www.w3.org/2000/svg" xmlns:xlink="http://www.w3.org/1999/xlink" x="0px" y="0px"
	 width="612px" height="576px" viewBox="0 0 612 576" enable-background="new 0 0 612 576" xml:space="preserve">
<path fill-rule="evenodd" clip-rule="evenodd" fill="#12D07B" d="M479.034,542.788c-7.569-2.649-13.795-5.235-19.889-8.244
	c-17.371-8.575-32.46-20.46-47.752-32.139c-16.506-12.605-31.284-27.154-47.038-40.588c-15.885-13.547-30.593-28.308-45.864-42.481
	c-3.534-3.28-7.316-6.303-10.735-9.694c-2.107-2.092-3.486-1.539-5.238,0.29c-4.802,5.018-9.661,9.981-14.563,14.901
	c-14.414,14.469-30.161,27.491-45.099,41.395c-18.825,17.523-38.354,34.299-59.218,49.334
	c-13.844,9.977-28.303,19.232-44.501,25.222c-1.526,0.563-2.958,1.523-5.317,1.249c1.924-7.355,3.781-14.602,5.727-21.828
	c1.417-5.262,3.074-10.46,4.387-15.747c0.738-2.965,2.178-5.025,4.77-6.776c9.276-6.263,17.815-13.603,26.939-19.99
	c16.841-11.79,30.886-26.691,46.712-39.549c16.351-13.283,30.997-28.377,46.552-42.497c3.9-3.542,7.861-7.005,12.228-11.187
	c-25.345-22.968-49.103-47.282-73.464-70.163c7.901-8.752,15.409-17.068,22.622-25.059c3.957,1.454,5.235,4.047,7.138,5.892
	c9.025,8.746,17.64,17.938,26.96,26.354c16.742,15.114,31.966,31.821,48.861,46.709c15.791,13.917,30.178,29.326,46.234,42.883
	c15.388,12.999,29.232,27.671,44.789,40.437c14.733,12.089,28.961,24.804,44.301,36.136c4.726,3.486,9.914,6.346,14.85,9.557
	c1.643,1.068,3.429,2.169,4.002,4.188C471.219,514.762,474.94,528.152,479.034,542.788z"/>
<path fill-rule="evenodd" clip-rule="evenodd" fill="#12D07B" d="M298.76,211.364c-10.534,8.974-19.514,18.783-29.631,27.472
	c-9.514,8.172-17.912,17.635-26.925,26.402c-20.834,20.263-40.872,41.299-61.177,62.081c-15.431,15.791-29.611,32.69-44.932,48.527
	c-17.095,17.673-32.589,36.583-47.018,56.43c-3.596,4.948-7.945,8.269-14.375,9.603c-9.908,2.051-19.569,5.317-29.312,8.147
	c-1.921,0.558-3.784,0.813-5.77,0.577c-0.819-2.469,0.391-4.371,1.27-6.168c11.673-23.812,27.133-45.063,44.609-64.861
	c12.61-14.287,25.562-28.276,38.545-42.225c16.989-18.255,34.773-35.762,51.63-54.803c-4.857-5.11-9.634-10.13-14.407-15.154
	c-8.278-8.715-16.235-17.767-24.922-26.054c-8.659-8.259-16.693-17.063-24.717-25.894c-7.505-8.259-14.743-16.785-22.329-24.943
	c-12.125-13.04-22.559-27.249-31.883-42.311c-5.562-8.983-10.856-18.178-13.388-28.724c1.901-0.616,3.459,0.082,5.012,0.493
	c10.823,2.88,21.622,5.856,32.462,8.671c3.729,0.97,6.352,3.102,8.45,6.255c12.288,18.468,26.314,35.614,41.621,51.576
	c14.542,15.164,28.324,31.037,43.135,45.919c8.401,8.442,16.94,16.769,25.479,25.522c4.42-3.112,7.538-7.222,11.195-10.736
	c18.442-17.72,36.77-35.561,55.28-53.208c6.928-6.606,6.998-6.305,13.957,0.007C286.674,199.456,292.671,204.988,298.76,211.364z"/>
<path fill-rule="evenodd" clip-rule="evenodd" fill="#12D07B" d="M435.429,282.25c5.342,5.741,9.932,11.661,15.503,16.433
	c9.022,7.728,16.232,17.081,24.429,25.532c6.43,6.631,12.266,13.854,18.864,20.303c17.568,17.174,32.768,36.382,48.525,55.143
	c11.19,13.323,20.407,27.726,27.53,43.535c1.048,2.332,2.179,4.648,2.517,7.282c-1.499,1.172-2.976,0.214-4.296-0.104
	c-9.509-2.307-18.824-5.314-28.431-7.333c-7.678-1.611-14.016-5.04-18.525-12.636c-9.847-16.585-23.994-29.894-36.493-44.445
	c-8.585-9.993-16.996-20.196-26.289-29.505c-15.503-15.53-29.905-32.073-45.236-47.75c-0.612-0.626-1.387-1.096-2.042-1.605
	c-7.382,4.494-12.495,11.182-18.418,16.954c-8.456,8.239-16.157,17.293-24.955,25.131c-9.487,8.453-18.534,17.344-27.742,26.075
	c-2.382,2.26-3.978,1.915-6.043-0.151c-4.815-4.819-9.804-9.465-14.583-14.322c-2.31-2.345-5.655-3.461-7.438-6.371
	c13.64-11.812,25.944-24.903,38.895-37.313c11.751-11.265,24.187-21.848,35.322-33.754c17.332-18.533,36.107-35.624,53.434-54.168
	c18.79-20.113,37.714-40.083,55.97-60.702c10.361-11.699,20.066-23.74,28.441-36.893c0.765-1.202,1.792-1.922,3.196-2.336
	c13.206-3.887,26.84-6.066,39.761-10.44c2.395,2.97-0.268,4.799-0.963,6.812c-4.543,13.18-11.859,25.064-20.237,35.886
	c-12.844,16.593-25.581,33.42-40.38,48.362c-17.041,17.203-32.709,35.723-50.27,52.379
	C448.688,268.685,442.817,275.921,435.429,282.25z"/>
<path fill-rule="evenodd" clip-rule="evenodd" fill="#12D07B" d="M331.197,181.272c11.768,9.734,21.371,20.592,32.479,29.97
	c10.272,8.672,19.361,18.744,28.963,28.208c3.238,3.189,6.442,6.411,9.677,9.604c1.479,1.461,2.091,2.958,0.361,4.653
	c-7.223,7.08-14.446,14.16-21.692,21.266c-1.85-0.565-2.922-2.114-4.203-3.341c-18.603-17.759-36.812-35.95-55.861-53.215
	c-16.22-14.703-31.656-30.296-48.518-44.243c-15.147-12.528-28.9-26.586-44.112-39.004c-14.649-11.957-28.027-25.473-43.379-36.521
	c-11.22-8.078-21.905-16.931-33.767-24.111c-1.492-0.903-2.619-1.954-3.139-3.679c-3.765-12.46-7.57-24.907-11.336-37.368
	c-0.114-0.381,0.061-0.849,0.141-1.675c7.182,1.325,13.627,4.307,19.848,7.543c22.914,11.917,43.399,27.324,63.4,43.598
	c16.328,13.286,31.61,27.738,47.867,41.055c11.487,9.411,22.098,19.735,33.06,29.698c1.335,1.212,2.699,2.393,4.318,3.823
	c4.7-3.765,9.437-7.229,13.8-11.116c13.449-11.987,26.581-24.337,40.17-36.164c13.797-12.007,27.627-24.033,42.111-35.182
	c14.966-11.52,30.058-23.042,46.821-31.934c8.593-4.559,17.333-9.07,27.661-11.31c-1.402,8.016-3.998,15.087-6.102,22.278
	c-0.932,3.189-2.715,6.216-3.153,9.446c-1.15,8.447-6.938,12.439-13.721,15.961c-5.789,3.007-10.835,7.211-15.884,11.299
	c-24.691,19.995-49.107,40.307-72.919,61.371C353.345,161.685,342.772,171.362,331.197,181.272z"/>
<path fill-rule="evenodd" clip-rule="evenodd" fill="#12D07B" d="M218.153,356.321c3.462,4.223,8.25,7.202,12.271,11.082
	c2.704,2.609,2.852,4.582-0.091,7c-12.175,10-22.844,21.601-34.255,32.414c-13.941,13.214-27.827,26.485-41.85,39.608
	c-3.214,3.007-4.284,6.855-5.43,10.763c-4.852,16.558-8.991,33.367-14.743,49.604c-4.042,11.407-6.757,23.144-10.563,34.578
	c-0.819,2.463-2.069,3.59-4.613,4.2c-24.289,5.841-48.928,9.974-73.354,15.138c-11.198,2.368-22.485,4.304-33.734,6.428
	c-0.693,0.131-1.401,0.181-2.791,0.356c1.787-7.823,3.214-15.205,5.182-22.441c3.608-13.268,6.659-26.666,9.996-39.988
	c2.886-11.522,6.561-22.932,9.057-34.537c1.613-7.5,5.018-10.32,12.288-12.238c26.177-6.899,52.355-13.837,78.405-21.246
	c9.409-2.679,16.338-7.319,22.868-13.911c9.488-9.575,18.984-19.195,29.104-28.082c13.203-11.595,25.476-24.133,38.257-36.147
	C215.255,357.869,216.257,356.692,218.153,356.321z M40.078,537.229c2.082,0.756,3.714,0.577,5.341,0.252
	c17.776-3.542,35.539-7.151,53.334-10.591c3.713-0.718,5.602-2.515,6.659-6.219c4.156-14.539,8.686-28.973,12.961-43.478
	c1.472-4.995,3.563-9.858,4.048-15.477c-6.125,0.589-11.437,2.818-16.924,4.304c-14.977,4.05-29.933,8.175-44.923,12.171
	c-3.377,0.9-5.317,2.515-6.182,6.193c-2.627,11.183-5.922,22.21-8.518,33.4C44.351,524.351,42.145,530.701,40.078,537.229z"/>
<path fill-rule="evenodd" clip-rule="evenodd" fill="#12D07B" d="M602.576,567.374c-7.655-1.385-15.222-2.642-22.744-4.13
	c-28.497-5.649-56.965-11.452-85.485-16.979c-4.012-0.775-5.717-2.559-6.807-6.428c-7.13-25.339-14.328-50.662-21.987-75.844
	c-2.1-6.91-3.104-14.545-9.526-19.642c-16.505-13.105-30.183-29.248-45.889-43.195c-9.738-8.648-18.821-17.921-28.247-26.862
	c-2.51-2.378-3.104-4.016-0.307-6.517c3.271-2.921,6.313-6.107,9.332-9.296c2.023-2.138,3.714-1.949,5.764-0.004
	c13.602,12.905,27.238,25.773,40.906,38.609c12.564,11.798,25.183,23.542,37.767,35.315c1.238,1.158,2.608,2.035,4.264,2.491
	c19.404,5.331,38.788,10.731,58.209,16c10.947,2.969,21.927,5.843,32.951,8.51c3.605,0.873,5.19,2.785,6.059,6.311
	c3.971,16.159,7.584,32.445,12.497,48.324c4.869,15.734,8.464,31.772,12.915,47.597C602.69,563.205,603.5,564.764,602.576,567.374z
	 M488.791,461.339c0.576,2.354,0.821,3.842,1.304,5.246c3.372,9.82,5.453,20.02,9.354,29.722c3.202,7.969,5.271,16.415,7.523,24.74
	c0.973,3.591,2.956,5.068,6.48,5.737c13.229,2.515,26.377,5.43,39.613,7.893c5.862,1.089,11.618,3.128,17.553,3.034
	c0.949-1.945,0.088-3.339-0.266-4.76c-3.954-15.851-8.079-31.661-11.804-47.564c-0.994-4.237-2.914-6.334-7.146-7.433
	c-15.078-3.91-30.047-8.236-45.082-12.313C500.801,464.144,495.209,462.904,488.791,461.339z"/>
<path fill-rule="evenodd" clip-rule="evenodd" fill="#12D07B" d="M18.859,6.51c8.266,1.694,16.406,3.264,24.503,5.039
	c21.272,4.663,42.529,9.403,63.786,14.138c5.025,1.12,10.013,2.408,15.045,3.485c1.986,0.424,3.052,1.333,3.731,3.347
	c4.668,13.87,9.617,27.645,14.221,41.535c4.619,13.939,8.994,27.96,13.346,41.986c0.685,2.204,2.116,3.628,3.654,5.059
	c20.044,18.659,40.185,37.214,60.111,56c5.475,5.16,11.744,9.475,16.764,15.493c-4.43,5.889-10.178,10.237-15.652,15.242
	c-8.007-5.691-14.373-13.032-21.476-19.537c-17.964-16.457-35.818-33.033-53.688-49.592c-2.041-1.891-4.235-3.375-6.952-4.11
	c-20.748-5.608-41.486-11.248-62.229-16.873c-9.492-2.573-18.979-5.17-28.487-7.687c-2.67-0.708-4.397-1.859-5.087-4.901
	c-7.104-31.3-14.357-62.567-21.57-93.844C18.576,9.975,18.094,8.675,18.859,6.51z M48.382,36.083
	c3.972,17.051,7.939,33.52,11.563,50.062c0.817,3.729,2.758,5.21,6.145,6.117c15.199,4.068,30.527,7.646,45.572,12.302
	c4.674,1.446,9.384,3.045,14.69,3.567c-0.348-1.424-0.531-2.444-0.845-3.421c-5.41-16.774-10.976-33.5-16.157-50.343
	c-1.216-3.954-2.989-6.014-7.14-6.898c-13.61-2.898-27.347-5.227-40.792-8.896C57.389,37.473,53.395,35.98,48.382,36.083z"/>
<path fill-rule="evenodd" clip-rule="evenodd" fill="#12D07B" d="M377.827,192.795c10.548-9.75,19.805-19.905,30.533-28.603
	c6.804-5.515,12.755-12.071,19.271-17.96c8.968-8.108,17.085-17.146,26.805-24.438c2.205-1.652,3.709-3.899,4.574-6.62
	c8.568-26.975,17.271-53.907,25.698-80.926c1.103-3.536,2.717-5.182,6.331-5.836c28.003-5.074,55.556-12.268,83.443-17.908
	c6.449-1.305,12.831-2.951,19.723-4.55c0.152,5.681-1.767,10.402-3.201,14.946c-4.01,12.692-6.611,25.691-9.631,38.602
	c-3.652,15.62-7.344,31.232-10.753,46.906c-0.649,2.986-2.565,3.39-4.71,3.955c-19.604,5.174-39.229,10.28-58.824,15.489
	c-10.234,2.72-20.423,5.612-30.635,8.418c-2.66,0.73-5.019,1.89-7.109,3.807c-19.409,17.792-38.708,35.701-57.923,53.702
	c-4.94,4.627-10.126,9.04-14.987,13.78c-2.337,2.277-4.295,2.856-6.754-0.004C386.047,201.333,382.11,197.376,377.827,192.795z
	 M484.895,108.846c10.096-3.804,19.611-5.338,28.864-8.067c10.968-3.237,22.044-6.366,33.251-8.836
	c3.234-0.714,4.66-2.542,5.361-5.777c3.131-14.487,6.525-28.918,9.792-43.375c0.479-2.132,1.436-4.244,0.693-6.946
	c-18.547,4.239-36.914,8.464-55.3,12.597c-2.066,0.465-3.061,1.581-3.676,3.476c-1.495,4.598-2.829,9.274-4.733,13.703
	C493.296,79.24,489.723,93.576,484.895,108.846z"/>
<path fill-rule="evenodd" clip-rule="evenodd" fill="#12D07B" d="M305.547,234.003c13.879,18.696,30.329,33.926,48.771,48.078
	c-18.96,13.941-35.26,29.493-48.922,49.028c-12.595-19.924-29.049-35.426-48.481-48.549c8.86-8.329,18.601-14.198,26.709-22.105
	C291.797,252.483,298.227,243.179,305.547,234.003z"/>
</svg>
